<svg width="127" height="34" viewBox="0 0 127 34" fill="none" xmlns="http://www.w3.org/2000/svg">
<path d="M1.76989 27V6.63636H9.80398C11.3485 6.63636 12.6643 6.93134 13.7514 7.52131C14.8385 8.10464 15.6671 8.91667 16.2372 9.95739C16.8139 10.9915 17.1023 12.1847 17.1023 13.5369C17.1023 14.8892 16.8106 16.0824 16.2273 17.1165C15.6439 18.1506 14.7988 18.956 13.6918 19.5327C12.5914 20.1094 11.259 20.3977 9.6946 20.3977H4.57386V16.9474H8.99858C9.82718 16.9474 10.5099 16.8049 11.0469 16.5199C11.5904 16.2282 11.9948 15.8272 12.2599 15.3168C12.5317 14.7997 12.6676 14.2064 12.6676 13.5369C12.6676 12.8608 12.5317 12.2708 12.2599 11.767C11.9948 11.2566 11.5904 10.8622 11.0469 10.5838C10.5033 10.2988 9.81392 10.1562 8.97869 10.1562H6.07528V27H1.76989ZM18.4192 27V11.7273H22.5258V14.392H22.6849C22.9633 13.4441 23.4306 12.7282 24.0869 12.2443C24.7431 11.7538 25.4988 11.5085 26.3539 11.5085C26.566 11.5085 26.7947 11.5218 27.04 11.5483C27.2853 11.5748 27.5007 11.6113 27.6863 11.6577V15.4162C27.4874 15.3565 27.2123 15.3035 26.861 15.2571C26.5097 15.2107 26.1882 15.1875 25.8965 15.1875C25.2734 15.1875 24.7166 15.3234 24.2261 15.5952C23.7422 15.8603 23.3577 16.2315 23.0727 16.7088C22.7942 17.1861 22.655 17.7363 22.655 18.3594V27H18.4192ZM34.7256 27.2983C33.1545 27.2983 31.8023 26.9801 30.6688 26.3438C29.5419 25.7008 28.6735 24.7926 28.0636 23.6193C27.4538 22.4394 27.1489 21.044 27.1489 19.4332C27.1489 17.8622 27.4538 16.4834 28.0636 15.2969C28.6735 14.1103 29.5319 13.1856 30.6389 12.5227C31.7526 11.8598 33.0584 11.5284 34.5565 11.5284C35.5641 11.5284 36.5021 11.6908 37.3705 12.0156C38.2455 12.3338 39.0078 12.8144 39.6574 13.4574C40.3136 14.1004 40.8241 14.9091 41.1886 15.8835C41.5532 16.8513 41.7355 17.9848 41.7355 19.2841V20.4474H28.8392V17.8224H37.7483C37.7483 17.2126 37.6157 16.6723 37.3506 16.2017C37.0854 15.7311 36.7175 15.3632 36.2469 15.098C35.7829 14.8262 35.2426 14.6903 34.6261 14.6903C33.9831 14.6903 33.4131 14.8395 32.9159 15.1378C32.4254 15.4295 32.0409 15.8239 31.7625 16.321C31.4841 16.8116 31.3416 17.3584 31.3349 17.9616V20.4574C31.3349 21.2131 31.4741 21.866 31.7526 22.4162C32.0376 22.9664 32.4386 23.3906 32.9557 23.6889C33.4727 23.9872 34.0859 24.1364 34.7952 24.1364C35.2658 24.1364 35.6967 24.0701 36.0878 23.9375C36.4789 23.8049 36.8136 23.6061 37.092 23.3409C37.3705 23.0758 37.5826 22.7509 37.7284 22.3665L41.646 22.625C41.4472 23.5663 41.0395 24.3883 40.423 25.0909C39.8132 25.7869 39.0243 26.3305 38.0565 26.7216C37.0954 27.1061 35.985 27.2983 34.7256 27.2983ZM55.8071 16.0824L51.9293 16.321C51.863 15.9896 51.7205 15.6913 51.5017 15.4261C51.283 15.1544 50.9946 14.9389 50.6366 14.7798C50.2853 14.6141 49.8644 14.5312 49.3739 14.5312C48.7176 14.5312 48.1641 14.6705 47.7134 14.9489C47.2626 15.2206 47.0372 15.5852 47.0372 16.0426C47.0372 16.4072 47.183 16.7154 47.4747 16.9673C47.7664 17.2192 48.2669 17.4214 48.9761 17.5739L51.7403 18.1307C53.2252 18.4356 54.3322 18.9261 55.0614 19.6023C55.7905 20.2784 56.1551 21.1667 56.1551 22.267C56.1551 23.268 55.8601 24.1463 55.2702 24.902C54.6868 25.6577 53.8848 26.2476 52.8639 26.6719C51.8497 27.0895 50.6797 27.2983 49.354 27.2983C47.3322 27.2983 45.7214 26.8774 44.5216 26.0355C43.3284 25.187 42.6291 24.0336 42.4236 22.5753L46.5898 22.3565C46.7157 22.973 47.0206 23.4437 47.5045 23.7685C47.9884 24.0866 48.6082 24.2457 49.3639 24.2457C50.1063 24.2457 50.7029 24.1032 51.1537 23.8182C51.6111 23.5265 51.8431 23.152 51.8497 22.6946C51.8431 22.3101 51.6807 21.9953 51.3625 21.75C51.0443 21.4981 50.5538 21.3059 49.8909 21.1733L47.246 20.6463C45.7545 20.348 44.6442 19.831 43.9151 19.0952C43.1925 18.3594 42.8312 17.4214 42.8312 16.2812C42.8312 15.3002 43.0964 14.455 43.6267 13.7457C44.1636 13.0365 44.916 12.4896 45.8838 12.1051C46.8582 11.7206 47.9984 11.5284 49.3043 11.5284C51.2332 11.5284 52.7512 11.9361 53.8582 12.7514C54.9719 13.5668 55.6215 14.6771 55.8071 16.0824ZM70.1298 16.0824L66.2519 16.321C66.1856 15.9896 66.0431 15.6913 65.8244 15.4261C65.6056 15.1544 65.3173 14.9389 64.9593 14.7798C64.608 14.6141 64.1871 14.5312 63.6965 14.5312C63.0403 14.5312 62.4868 14.6705 62.036 14.9489C61.5853 15.2206 61.3599 15.5852 61.3599 16.0426C61.3599 16.4072 61.5057 16.7154 61.7974 16.9673C62.089 17.2192 62.5895 17.4214 63.2988 17.5739L66.063 18.1307C67.5478 18.4356 68.6549 18.9261 69.384 19.6023C70.1132 20.2784 70.4778 21.1667 70.4778 22.267C70.4778 23.268 70.1828 24.1463 69.5928 24.902C69.0095 25.6577 68.2074 26.2476 67.1866 26.6719C66.1724 27.0895 65.0024 27.2983 63.6766 27.2983C61.6549 27.2983 60.0441 26.8774 58.8442 26.0355C57.6511 25.187 56.9517 24.0336 56.7462 22.5753L60.9124 22.3565C61.0384 22.973 61.3433 23.4437 61.8272 23.7685C62.3111 24.0866 62.9309 24.2457 63.6866 24.2457C64.429 24.2457 65.0256 24.1032 65.4764 23.8182C65.9337 23.5265 66.1657 23.152 66.1724 22.6946C66.1657 22.3101 66.0033 21.9953 65.6852 21.75C65.367 21.4981 64.8764 21.3059 64.2136 21.1733L61.5687 20.6463C60.0772 20.348 58.9669 19.831 58.2377 19.0952C57.5152 18.3594 57.1539 17.4214 57.1539 16.2812C57.1539 15.3002 57.4191 14.455 57.9494 13.7457C58.4863 13.0365 59.2387 12.4896 60.2065 12.1051C61.1809 11.7206 62.321 11.5284 63.6269 11.5284C65.5559 11.5284 67.0739 11.9361 68.1809 12.7514C69.2945 13.5668 69.9442 14.6771 70.1298 16.0824ZM74.2209 27.2585C73.5646 27.2585 73.0012 27.0265 72.5305 26.5625C72.0665 26.0919 71.8345 25.5284 71.8345 24.8722C71.8345 24.2225 72.0665 23.6657 72.5305 23.2017C73.0012 22.7377 73.5646 22.5057 74.2209 22.5057C74.8572 22.5057 75.4141 22.7377 75.8913 23.2017C76.3686 23.6657 76.6072 24.2225 76.6072 24.8722C76.6072 25.3097 76.4946 25.7107 76.2692 26.0753C76.0504 26.4332 75.7621 26.7216 75.4041 26.9403C75.0462 27.1525 74.6518 27.2585 74.2209 27.2585ZM82.9207 18.1705V27H78.6849V6.63636H82.8013V14.4219H82.9803C83.325 13.5204 83.8818 12.8144 84.6508 12.304C85.4197 11.7869 86.3842 11.5284 87.5442 11.5284C88.6049 11.5284 89.5296 11.7604 90.3184 12.2244C91.1138 12.6818 91.7303 13.3414 92.1678 14.2031C92.612 15.0582 92.8307 16.0824 92.8241 17.2756V27H88.5883V18.0312C88.5949 17.09 88.3563 16.3575 87.8724 15.8338C87.3951 15.3101 86.7256 15.0483 85.8638 15.0483C85.2871 15.0483 84.7767 15.1709 84.3326 15.4162C83.8951 15.6615 83.5504 16.0194 83.2985 16.4901C83.0532 16.9541 82.9273 17.5142 82.9207 18.1705ZM104.552 20.4972V11.7273H108.787V27H104.721V24.2259H104.562C104.217 25.1207 103.643 25.84 102.841 26.3835C102.046 26.9271 101.075 27.1989 99.928 27.1989C98.9071 27.1989 98.0089 26.9669 97.2334 26.5028C96.4578 26.0388 95.8513 25.3793 95.4138 24.5241C94.9829 23.669 94.7642 22.6449 94.7575 21.4517V11.7273H98.9933V20.696C98.9999 21.5975 99.2419 22.3101 99.7192 22.8338C100.196 23.3575 100.836 23.6193 101.638 23.6193C102.149 23.6193 102.626 23.5033 103.07 23.2713C103.514 23.0327 103.872 22.6813 104.144 22.2173C104.422 21.7533 104.558 21.1799 104.552 20.4972ZM110.855 27V6.63636H115.091V14.2926H115.22C115.406 13.8816 115.674 13.464 116.026 13.0398C116.383 12.6089 116.847 12.2509 117.418 11.9659C117.994 11.6742 118.71 11.5284 119.565 11.5284C120.679 11.5284 121.706 11.8201 122.648 12.4034C123.589 12.9801 124.341 13.8518 124.905 15.0185C125.468 16.1785 125.75 17.6335 125.75 19.3835C125.75 21.0871 125.475 22.5256 124.925 23.6989C124.381 24.8655 123.639 25.7505 122.697 26.3537C121.763 26.9503 120.715 27.2486 119.555 27.2486C118.733 27.2486 118.034 27.1127 117.457 26.8409C116.887 26.5691 116.42 26.2277 116.055 25.8168C115.691 25.3991 115.412 24.9782 115.22 24.554H115.031V27H110.855ZM115.001 19.3636C115.001 20.2718 115.127 21.0639 115.379 21.7401C115.631 22.4162 115.996 22.9432 116.473 23.321C116.95 23.6922 117.53 23.8778 118.213 23.8778C118.902 23.8778 119.486 23.6889 119.963 23.3111C120.44 22.9266 120.802 22.3963 121.047 21.7202C121.299 21.0374 121.425 20.2519 121.425 19.3636C121.425 18.482 121.302 17.7064 121.057 17.0369C120.811 16.3674 120.45 15.8437 119.973 15.4659C119.496 15.0881 118.909 14.8991 118.213 14.8991C117.524 14.8991 116.94 15.0814 116.463 15.446C115.992 15.8106 115.631 16.3277 115.379 16.9972C115.127 17.6667 115.001 18.4555 115.001 19.3636Z" fill="black"/>
</svg>
